<?xml version="1.0" encoding="utf-8"?>
<!-- Generator: Adobe Illustrator 24.1.0, SVG Export Plug-In . SVG Version: 6.00 Build 0)  -->
<svg version="1.1" id="Layer_1" xmlns="http://www.w3.org/2000/svg" xmlns:xlink="http://www.w3.org/1999/xlink" x="0px" y="0px"
	 viewBox="0 0 1125 2436" style="enable-background:new 0 0 1125 2436;" xml:space="preserve">
<style type="text/css">
	.st0{fill:url(#Background-2_1_);}
	.st1{fill:#875AB8;}
	.st2{fill:#543BBF;}
	.st3{fill:#664AB4;}
</style>
<g id="bg" transform="translate(1003.81 -470)">
	<g transform="matrix(1, 0, 0, 1, -1003.81, 470)">
		
			<linearGradient id="Background-2_1_" gradientUnits="userSpaceOnUse" x1="0.173" y1="2435.646" x2="1.173" y2="2435.646" gradientTransform="matrix(375 0 0 -292 364.31 712427)">
			<stop  offset="0" style="stop-color:#442EB5"/>
			<stop  offset="1" style="stop-color:#6F21A9;stop-opacity:0.8"/>
		</linearGradient>
		<rect id="Background-2" x="429.17" y="1072.35" class="st0" width="375" height="292"/>
	</g>
	<path id="Subtraction_3" class="st1" d="M-251.14,1654.35c-12.37,0.02-24.61-2.45-36-7.27c-5.5-2.33-10.76-5.19-15.71-8.53
		c-4.91-3.32-9.5-7.11-13.69-11.3c-4.19-4.19-7.98-8.78-11.3-13.69c-3.34-4.95-6.2-10.21-8.52-15.71c-4.82-11.39-7.29-23.63-7.27-36
		c0-6.55,0.68-13.09,2.05-19.5h36.35c-2.26,6.25-3.41,12.85-3.4,19.5c0.04,31.74,25.76,57.46,57.5,57.5
		c21.86,0.06,41.84-12.33,51.5-31.94v51.29c-4.89,3.28-10.08,6.09-15.5,8.38C-226.53,1651.9-238.78,1654.38-251.14,1654.35z"/>
	<path class="st2" d="M-496.9,1834.35h-38.52c-8.22-12.49-22.18-20-37.13-20c-0.7,0-1.4,0.02-2.09,0.05c-0.06,0-0.11,0-0.17,0.01
		v-35.03c0.05,0,0.11,0,0.17-0.01c0.7-0.01,1.39-0.02,2.09-0.02c10.63-0.02,21.16,2.11,30.95,6.25c4.72,2,9.24,4.46,13.5,7.33
		c4.22,2.85,8.16,6.1,11.76,9.71c3.6,3.6,6.86,7.54,9.71,11.76c2.87,4.26,5.33,8.78,7.33,13.5
		C-498.41,1830.01-497.6,1832.18-496.9,1834.35z"/>
	<path class="st3" d="M-424.65,1834.35h-35.22c-6.37-46.89-46.36-81.89-93.68-82c-7.23,0.02-14.3,0.85-21.09,2.42
		c-0.06,0-0.12,0.02-0.17,0.04v-35.72c0.06-0.01,0.11-0.02,0.17-0.03c6.97-1.14,14.02-1.71,21.09-1.71c8.77,0,17.51,0.88,26.1,2.63
		c8.33,1.71,16.48,4.24,24.31,7.55c7.7,3.26,15.07,7.26,22,11.94c6.88,4.65,13.29,9.94,19.16,15.81
		c5.87,5.87,11.17,12.29,15.81,19.17c4.69,6.93,8.68,14.3,11.94,22c3.32,7.84,5.84,15.98,7.55,24.31
		C-425.76,1825.25-425.09,1829.79-424.65,1834.35z"/>
</g>
</svg>
